<?xml version="1.0" encoding="utf-8"?>
<svg version="1.1" xmlns:xlink="http://www.w3.org/1999/xlink" width="10px" height="10px" viewBox="55 189.5  10 10" xmlns="http://www.w3.org/2000/svg">
  <path d="M 60 189.5  C 62.8 189.5  65 191.7  65 194.5  C 65 197.3  62.8 199.5  60 199.5  C 57.2 199.5  55 197.3  55 194.5  C 55 191.7  57.2 189.5  60 189.5  Z " fill-rule="nonzero" fill="#ffffff" stroke="none" />
  <path d="M 60 190  C 62.52 190  64.5 191.98  64.5 194.5  C 64.5 197.02  62.52 199  60 199  C 57.48 199  55.5 197.02  55.5 194.5  C 55.5 191.98  57.48 190  60 190  Z " stroke-width="1" stroke="#797979" fill="none" />
  <path d="M 60 197  C 58.6 197  57.5 195.9  57.5 194.5  C 57.5 193.1  58.6 192  60 192  C 61.4 192  62.5 193.1  62.5 194.5  C 62.5 195.9  61.4 197  60 197  " fill-rule="nonzero" fill="#797979" stroke="none" />
</svg>