<?xml version="1.0" encoding="utf-8"?>
<svg version="1.1" xmlns:xlink="http://www.w3.org/1999/xlink" width="10px" height="10px" viewBox="55 170.5  10 10" xmlns="http://www.w3.org/2000/svg">
  <path d="M 60 170.5  C 62.8 170.5  65 172.7  65 175.5  C 65 178.3  62.8 180.5  60 180.5  C 57.2 180.5  55 178.3  55 175.5  C 55 172.7  57.2 170.5  60 170.5  Z " fill-rule="nonzero" fill="#ffffff" stroke="none" />
  <path d="M 60 171  C 62.52 171  64.5 172.98  64.5 175.5  C 64.5 178.02  62.52 180  60 180  C 57.48 180  55.5 178.02  55.5 175.5  C 55.5 172.98  57.48 171  60 171  Z " stroke-width="1" stroke="#797979" fill="none" />
  <path d="M 60 178  C 58.6 178  57.5 176.9  57.5 175.5  C 57.5 174.1  58.6 173  60 173  C 61.4 173  62.5 174.1  62.5 175.5  C 62.5 176.9  61.4 178  60 178  " fill-rule="nonzero" fill="#797979" stroke="none" />
</svg>