<?xml version="1.0" encoding="utf-8"?>
<svg version="1.1" xmlns:xlink="http://www.w3.org/1999/xlink" width="18px" height="36px" xmlns="http://www.w3.org/2000/svg">
  <defs>
    <mask fill="white" id="clip32">
      <path d="M 0 0  L 9.13263157894737 0  L 9.89052631578948 0.757894736842095  L 18 18  L 9.89052631578948 35.2421052631579  L 9.13263157894737 36  L 0 36  L 9.89052631578948 18  L 0 0  Z " fill-rule="evenodd" />
    </mask>
  </defs>
  <g transform="matrix(1 0 0 1 -364 -503 )">
    <path d="M 0 0  L 9.13263157894737 0  L 9.89052631578948 0.757894736842095  L 18 18  L 9.89052631578948 35.2421052631579  L 9.13263157894737 36  L 0 36  L 9.89052631578948 18  L 0 0  Z " fill-rule="nonzero" fill="#ffffff" stroke="none" transform="matrix(1 0 0 1 364 503 )" />
    <path d="M 0 0  L 9.13263157894737 0  L 9.89052631578948 0.757894736842095  L 18 18  L 9.89052631578948 35.2421052631579  L 9.13263157894737 36  L 0 36  L 9.89052631578948 18  L 0 0  Z " stroke-width="2" stroke="#797979" fill="none" transform="matrix(1 0 0 1 364 503 )" mask="url(#clip32)" />
  </g>
</svg>