<?xml version="1.0" encoding="utf-8"?>
<svg version="1.1" xmlns:xlink="http://www.w3.org/1999/xlink" width="10px" height="10px" viewBox="50 227.5  10 10" xmlns="http://www.w3.org/2000/svg">
  <path d="M 55 227.5  C 57.8 227.5  60 229.7  60 232.5  C 60 235.3  57.8 237.5  55 237.5  C 52.2 237.5  50 235.3  50 232.5  C 50 229.7  52.2 227.5  55 227.5  Z " fill-rule="nonzero" fill="#ffffff" stroke="none" />
  <path d="M 55 228  C 57.52 228  59.5 229.98  59.5 232.5  C 59.5 235.02  57.52 237  55 237  C 52.48 237  50.5 235.02  50.5 232.5  C 50.5 229.98  52.48 228  55 228  Z " stroke-width="1" stroke="#797979" fill="none" />
  <path d="M 55 235  C 53.6 235  52.5 233.9  52.5 232.5  C 52.5 231.1  53.6 230  55 230  C 56.4 230  57.5 231.1  57.5 232.5  C 57.5 233.9  56.4 235  55 235  " fill-rule="nonzero" fill="#797979" stroke="none" />
</svg>